<svg
  xmlns="http://www.w3.org/2000/svg"
  width="120"
  height="120"
  viewBox="0 0 64 64"
  fill="none"
>
  <g>
    <path
      d="M32 2C29.793 2 28 3.793 28 6v6H18c-4.418 0-8 3.582-8 8v16c0 1.218.25 2.385.685 3.415A11.947 11.947 0 018 36c0 3.313 1.658 6.364 4.441 8.054A12.029 12.029 0 012 48c0 6.627 5.373 12 12 12h20c6.627 0 12-5.373 12-12 0-1.935-.467-3.749-1.256-5.346C50.177 45.448 54 42.298 54 36c0-5.411-4.337-9.8-9.872-9.99A10.993 10.993 0 0040 30c0 5.523-4.477 10-10 10-5.523 0-10-4.477-10-10V6c0-2.207-1.793-4-4-4s-4 1.793-4 4v10H4c-2.207 0-4 1.793-4 4s1.793 4 4 4h16v12c0 5.523 4.477 10 10 10s10-4.477 10-10V10h10c2.207 0 4-1.793 4-4s-1.793-4-4-4h-10V6c0-2.207-1.793-4-4-4z"
      fill="#D3B494"
    />
    <text
      x="50%"
      y="50%"
      alignment-baseline="middle"
      text-anchor="middle"
      font-family="Arial"
      font-size="12"
      fill="#000"
    >
      Hollywood Smile
    </text>
  </g>
</svg>
